<svg id="visual" viewBox="0 0 1000 300" width="1000" height="300" xmlns="http://www.w3.org/2000/svg" xmlns:xlink="http://www.w3.org/1999/xlink" version="1.1"><rect x="0" y="0" width="1000" height="300" fill="#990099"></rect><path d="M0 79L23.8 81.3C47.7 83.7 95.3 88.3 143 95.3C190.7 102.3 238.3 111.7 286 106.3C333.7 101 381.3 81 428.8 71C476.3 61 523.7 61 571.2 65.3C618.7 69.7 666.3 78.3 714 80C761.7 81.7 809.3 76.3 857 73.2C904.7 70 952.3 69 976.2 68.5L1000 68L1000 0L976.2 0C952.3 0 904.7 0 857 0C809.3 0 761.7 0 714 0C666.3 0 618.7 0 571.2 0C523.7 0 476.3 0 428.8 0C381.3 0 333.7 0 286 0C238.3 0 190.7 0 143 0C95.3 0 47.7 0 23.8 0L0 0Z" fill="#990099"></path><path d="M0 79L23.8 86.5C47.7 94 95.3 109 143 103.5C190.7 98 238.3 72 286 59.8C333.7 47.7 381.3 49.3 428.8 61.8C476.3 74.3 523.7 97.7 571.2 102.7C618.7 107.7 666.3 94.3 714 85C761.7 75.7 809.3 70.3 857 72.5C904.7 74.7 952.3 84.3 976.2 89.2L1000 94L1000 0L976.2 0C952.3 0 904.7 0 857 0C809.3 0 761.7 0 714 0C666.3 0 618.7 0 571.2 0C523.7 0 476.3 0 428.8 0C381.3 0 333.7 0 286 0C238.3 0 190.7 0 143 0C95.3 0 47.7 0 23.8 0L0 0Z" fill="#8f0aa9"></path><path d="M0 71L23.8 73.5C47.7 76 95.3 81 143 83.5C190.7 86 238.3 86 286 82.7C333.7 79.3 381.3 72.7 428.8 66.3C476.3 60 523.7 54 571.2 49.7C618.7 45.3 666.3 42.7 714 46.8C761.7 51 809.3 62 857 69.8C904.7 77.7 952.3 82.3 976.2 84.7L1000 87L1000 0L976.2 0C952.3 0 904.7 0 857 0C809.3 0 761.7 0 714 0C666.3 0 618.7 0 571.2 0C523.7 0 476.3 0 428.8 0C381.3 0 333.7 0 286 0C238.3 0 190.7 0 143 0C95.3 0 47.7 0 23.8 0L0 0Z" fill="#7f18ba"></path><path d="M0 19L23.8 20C47.7 21 95.3 23 143 30.8C190.7 38.7 238.3 52.3 286 54.2C333.7 56 381.3 46 428.8 43.3C476.3 40.7 523.7 45.3 571.2 45.5C618.7 45.7 666.3 41.3 714 44.7C761.7 48 809.3 59 857 64.5C904.7 70 952.3 70 976.2 70L1000 70L1000 0L976.2 0C952.3 0 904.7 0 857 0C809.3 0 761.7 0 714 0C666.3 0 618.7 0 571.2 0C523.7 0 476.3 0 428.8 0C381.3 0 333.7 0 286 0C238.3 0 190.7 0 143 0C95.3 0 47.7 0 23.8 0L0 0Z" fill="#6725cb"></path><path d="M0 2L23.8 4.3C47.7 6.7 95.3 11.3 143 14.5C190.7 17.7 238.3 19.3 286 17C333.7 14.7 381.3 8.3 428.8 6.5C476.3 4.7 523.7 7.3 571.2 9C618.7 10.7 666.3 11.3 714 10.7C761.7 10 809.3 8 857 14C904.7 20 952.3 34 976.2 41L1000 48L1000 0L976.2 0C952.3 0 904.7 0 857 0C809.3 0 761.7 0 714 0C666.3 0 618.7 0 571.2 0C523.7 0 476.3 0 428.8 0C381.3 0 333.7 0 286 0C238.3 0 190.7 0 143 0C95.3 0 47.7 0 23.8 0L0 0Z" fill="#3c31dd"></path></svg>